<svg width="316" height="133" viewBox="0 0 316 133" fill="none" xmlns="http://www.w3.org/2000/svg">
<path d="M-21.5271 128.965C-21.2157 101.03 -18.4134 65.9568 8.83167 50.2824C37.3222 33.9871 65.657 60.6803 90.8781 71.2334C115.321 81.4761 138.829 73.4061 156.889 55.0933C166.853 45.0058 174.326 32.7456 182.266 21.2614C187.559 13.5017 193.164 2.94863 204.529 8.53556C211.223 11.7946 217.451 15.364 224.457 17.8471C252.947 28.245 284.396 28.4002 312.886 18.3127C316.934 16.916 317.245 10.8635 312.419 12.5706C282.372 23.1237 248.744 21.8821 219.786 8.38037C209.199 3.41421 197.834 -5.27658 187.248 4.50056C176.35 14.5881 169.5 29.7969 160.625 41.4364C151.284 53.6966 139.296 65.4912 123.728 69.0607C105.668 73.4061 89.477 63.0081 74.3754 54.6278C51.4896 42.0572 26.1128 31.6593 2.13718 47.7993C-25.1079 66.2672 -28.6886 100.875 -29 130.827C-29 134.862 -21.6828 132.534 -21.5271 128.965Z" fill="url(#paint0_linear)"/>
<defs>
<linearGradient id="paint0_linear" x1="-0.683384" y1="165.375" x2="259.546" y2="-53.6774" gradientUnits="userSpaceOnUse">
<stop stop-color="#FF9C53"/>
<stop offset="0.8392" stop-color="#FF766C"/>
</linearGradient>
</defs>
</svg>
