<svg width="101" height="152" viewBox="0 0 101 152" fill="none" xmlns="http://www.w3.org/2000/svg">
<path d="M-8.99088 2.35663C-10.5045 19.5261 -11.85 38.5471 -1.08634 53.3599C8.50003 66.4895 23.9728 69.1828 39.1091 69.3511C48.3591 69.5194 57.7773 68.6778 66.8591 70.6977C80.1455 73.5593 77.6228 91.0654 78.1273 101.838C78.8 119.344 80.65 137.187 92.9273 150.822C95.1137 153.347 103.355 152 100.495 148.802C87.0409 133.821 87.2091 113.958 86.3682 94.9369C86.0318 88.0355 86.7046 77.2625 82.1637 71.5393C78.6319 67.3311 72.0728 66.1529 67.0273 65.1429C50.2091 62.113 30.1955 68.1728 14.8909 59.0831C-4.11361 47.6368 -2.26361 22.051 -0.58179 3.19827C-0.245426 -0.504944 -8.65452 -1.34658 -8.99088 2.35663Z" fill="url(#paint0_linear)"/>
<defs>
<linearGradient id="paint0_linear" x1="31.5589" y1="88.2277" x2="67.4233" y2="58.16" gradientUnits="userSpaceOnUse">
<stop stop-color="#FF9C53"/>
<stop offset="0.8392" stop-color="#FF766C"/>
</linearGradient>
</defs>
</svg>
