<svg width="493" height="510" viewBox="0 0 493 510" fill="none" xmlns="http://www.w3.org/2000/svg">
<path d="M31.9998 275.681C23.462 299.744 9.96331 323.953 12.8357 350.456C15.1897 371.909 29.9146 387.969 49.8176 395.078C96.7215 411.65 137.603 375.54 162.999 339.915C179.374 316.814 193.01 291.261 213.378 271.121C221.988 262.629 231.804 254.83 242.878 249.902C252.654 245.44 261.185 245.197 271.114 249.632C278.399 252.819 285.314 256.702 292.599 259.89C315.706 269.96 340.664 277.341 366.162 275.406C392.726 273.145 415.794 259.581 437.749 245.741C495.091 209.979 549.737 170.004 604.522 130.26C608.597 127.335 599.736 124.149 596.633 126.331C550.416 160.132 504.059 193.701 456.075 225.094C434.677 239.072 412.587 255.044 388.352 263.79C361.29 273.605 333.231 269.195 307.017 258.943C286.371 250.862 266.406 234.484 243.19 242.302C222.985 249.096 205.995 265.153 192.855 281.576C162.732 318.784 142.144 373.912 92.5121 389.737C67.7191 397.556 36.1769 389.722 25.6552 363.878C14.0623 335.208 31.6772 304.737 41.1848 278.356C42.5218 273.766 33.2921 272.064 31.9998 275.681Z" fill="url(#paint0_linear)"/>
<defs>
<linearGradient id="paint0_linear" x1="20.6133" y1="366.303" x2="582.71" y2="91.3241" gradientUnits="userSpaceOnUse">
<stop stop-color="#FF9C53"/>
<stop offset="0.8392" stop-color="#FF766C"/>
</linearGradient>
</defs>
</svg>
