<svg width="303" height="117" viewBox="0 0 303 117" fill="none" xmlns="http://www.w3.org/2000/svg">
<path d="M-16.0169 68.7542C-23.6098 36.0368 6.40561 10.7876 36.0651 6.28305C49.9457 4.14931 66.6737 5.69034 76.9951 16.359C88.503 28.2131 89.5708 47.8909 93.6044 63.0642C100.248 88.0764 116.502 114.63 146.161 111.429C160.991 109.769 173.804 101.59 184.837 92.1067C194.803 83.4532 207.378 67.6873 222.445 72.666C230.868 75.3925 237.749 82.9791 243.919 89.0247C249.732 94.8332 255.427 100.879 261.952 105.976C273.341 114.748 288.408 120.557 302.526 114.867C304.424 114.155 301.814 108.821 299.797 109.532C283.188 116.171 266.697 106.213 254.833 95.0703C244.868 85.7055 234.902 71.8362 221.496 67.4502C208.09 62.9457 196.819 73.4958 187.803 81.9122C175.583 93.1736 161.465 104.198 144.381 106.095C127.06 107.991 112.824 98.8636 104.638 83.9274C96.3331 68.7542 94.9095 50.973 89.9267 34.6144C86.3675 22.7603 80.0797 11.8545 68.9278 5.80889C56.5894 -0.947952 41.8783 -1.06649 28.8282 1.77849C-1.06857 8.53533 -27.1689 34.8514 -19.6947 67.3317C-19.2202 69.3469 -15.1865 72.5475 -16.0169 68.7542Z" fill="url(#paint0_linear)"/>
<defs>
<linearGradient id="paint0_linear" x1="50.1943" y1="149.895" x2="216.007" y2="10.6477" gradientUnits="userSpaceOnUse">
<stop stop-color="#FF9C53"/>
<stop offset="0.8392" stop-color="#FF766C"/>
</linearGradient>
</defs>
</svg>
