<svg width="345" height="133" viewBox="0 0 345 133" fill="none" xmlns="http://www.w3.org/2000/svg">
<path d="M7.47292 128.965C7.7843 101.03 10.5866 65.9568 37.8317 50.2824C66.3222 33.9872 94.657 60.6803 119.878 71.2334C144.321 81.4761 167.829 73.4061 185.889 55.0934C195.853 45.0058 203.326 32.7456 211.266 21.2614C216.559 13.5018 222.164 2.94866 233.529 8.53559C240.223 11.7946 246.451 15.3641 253.457 17.8471C281.947 28.245 313.396 28.4002 341.886 18.3127C345.934 16.916 346.245 10.8635 341.419 12.5706C311.372 23.1237 277.744 21.8822 248.786 8.3804C238.199 3.41424 226.834 -5.27654 216.248 4.50059C205.35 14.5881 198.5 29.797 189.625 41.4364C180.284 53.6966 168.296 65.4913 152.728 69.0607C134.668 73.4061 118.477 63.0082 103.375 54.6278C80.4896 42.0572 55.1128 31.6593 31.1372 47.7993C3.89215 66.2672 0.311372 100.875 0 130.827C0 134.862 7.31724 132.534 7.47292 128.965Z" fill="url(#paint0_linear)"/>
<defs>
<linearGradient id="paint0_linear" x1="28.3166" y1="165.375" x2="288.546" y2="-53.6774" gradientUnits="userSpaceOnUse">
<stop stop-color="#FF9C53"/>
<stop offset="0.8392" stop-color="#FF766C"/>
</linearGradient>
</defs>
</svg>
