<svg width="107" height="64" viewBox="0 0 107 64" fill="none" xmlns="http://www.w3.org/2000/svg">
<path d="M6.20198 2.48155C3.6845 8.4725 1.82595 14.7126 1.0065 21.2559C0.459969 26.3968 -0.359472 32.9401 2.12303 37.6537C7.40473 47.5153 24.6544 43.0286 33.3613 41.6926C40.8642 40.5754 48.551 39.0559 56.0977 39.7752C58.9997 40.1087 61.2618 40.3126 63.1051 42.56C64.334 44.0583 64.5996 45.7316 65.2454 47.4588C66.1064 49.7617 67.4302 51.8576 69.0961 53.7683C77.5462 63.3002 91.3093 63.382 103.115 62.8357C106.562 62.7013 108.312 57.3416 104.384 57.5635C93.0599 58.0222 77.3893 58.41 71.6647 46.5384C69.6572 42.4763 69.6331 38.4227 65.2869 36.0152C61.0991 33.8248 55.6686 33.9507 51.1188 34.1625C39.415 34.5673 27.7228 38.1672 16.0445 37.9526C7.35069 37.8106 6.42101 31.9541 6.74644 24.6398C7.02735 17.8256 8.75309 10.7488 11.5369 4.0946C13.0715 0.495655 7.57164 -0.595562 6.20198 2.48155Z" fill="url(#paint0_linear)"/>
<defs>
<linearGradient id="paint0_linear" x1="31.7502" y1="60.3643" x2="61.987" y2="24.4972" gradientUnits="userSpaceOnUse">
<stop stop-color="#FF9C53"/>
<stop offset="0.8392" stop-color="#FF766C"/>
</linearGradient>
</defs>
</svg>
